<mxfile host="65bd71144e">
    <diagram id="zDhE4Xe6fjtE2XTX3_XT" name="SERVER-ARCHITECTURE">
        <mxGraphModel dx="354" dy="820" grid="1" gridSize="10" guides="1" tooltips="1" connect="1" arrows="1" fold="1" page="1" pageScale="1" pageWidth="1920" pageHeight="1200" math="0" shadow="0">
            <root>
                <mxCell id="0"/>
                <mxCell id="1" parent="0"/>
                <mxCell id="2NaOHyG4xaPGturMcbHV-3" style="edgeStyle=orthogonalEdgeStyle;html=1;exitX=0.75;exitY=1;exitDx=0;exitDy=0;entryX=0.855;entryY=0;entryDx=0;entryDy=4.35;entryPerimeter=0;fontSize=24;" parent="1" source="n5Z6GCW2si426lApyZtX-14" target="2NaOHyG4xaPGturMcbHV-1" edge="1">
                    <mxGeometry relative="1" as="geometry"/>
                </mxCell>
                <mxCell id="n5Z6GCW2si426lApyZtX-14" value="" style="swimlane;startSize=0;strokeColor=default;strokeWidth=1;" parent="1" vertex="1">
                    <mxGeometry x="200" y="70" width="1390" height="970" as="geometry"/>
                </mxCell>
                <mxCell id="n5Z6GCW2si426lApyZtX-13" value="" style="ellipse;whiteSpace=wrap;html=1;strokeColor=default;strokeWidth=1;" parent="n5Z6GCW2si426lApyZtX-14" vertex="1">
                    <mxGeometry x="-20" y="90" width="1330" height="850" as="geometry"/>
                </mxCell>
                <mxCell id="n5Z6GCW2si426lApyZtX-21" value="" style="group" parent="n5Z6GCW2si426lApyZtX-14" vertex="1" connectable="0">
                    <mxGeometry x="750" y="220" width="260" height="130" as="geometry"/>
                </mxCell>
                <mxCell id="n5Z6GCW2si426lApyZtX-12" value="" style="ellipse;whiteSpace=wrap;html=1;strokeColor=default;strokeWidth=1;" parent="n5Z6GCW2si426lApyZtX-21" vertex="1">
                    <mxGeometry width="260" height="130" as="geometry"/>
                </mxCell>
                <mxCell id="n5Z6GCW2si426lApyZtX-15" value="admin service" style="rounded=0;whiteSpace=wrap;html=1;strokeColor=default;strokeWidth=1;" parent="n5Z6GCW2si426lApyZtX-21" vertex="1">
                    <mxGeometry x="55" y="60" width="150" height="30" as="geometry"/>
                </mxCell>
                <mxCell id="n5Z6GCW2si426lApyZtX-18" value="Admin Guard" style="text;html=1;strokeColor=none;fillColor=none;align=center;verticalAlign=middle;whiteSpace=wrap;rounded=0;strokeWidth=1;" parent="n5Z6GCW2si426lApyZtX-21" vertex="1">
                    <mxGeometry x="90" y="10" width="90" height="30" as="geometry"/>
                </mxCell>
                <mxCell id="n5Z6GCW2si426lApyZtX-23" value="Auth Guard" style="text;html=1;strokeColor=none;fillColor=none;align=center;verticalAlign=middle;whiteSpace=wrap;rounded=0;strokeWidth=1;" parent="n5Z6GCW2si426lApyZtX-14" vertex="1">
                    <mxGeometry x="430" y="900" width="440" height="30" as="geometry"/>
                </mxCell>
                <mxCell id="n5Z6GCW2si426lApyZtX-25" value="Admin table" style="shape=cylinder3;whiteSpace=wrap;html=1;boundedLbl=1;backgroundOutline=1;size=15;strokeColor=default;strokeWidth=1;" parent="n5Z6GCW2si426lApyZtX-14" vertex="1">
                    <mxGeometry x="1100" y="290" width="60" height="80" as="geometry"/>
                </mxCell>
                <mxCell id="2NaOHyG4xaPGturMcbHV-4" style="edgeStyle=orthogonalEdgeStyle;html=1;exitX=1;exitY=0.5;exitDx=0;exitDy=0;entryX=0;entryY=0.5;entryDx=0;entryDy=0;entryPerimeter=0;fontSize=24;" parent="n5Z6GCW2si426lApyZtX-14" source="n5Z6GCW2si426lApyZtX-15" target="n5Z6GCW2si426lApyZtX-25" edge="1">
                    <mxGeometry relative="1" as="geometry"/>
                </mxCell>
                <mxCell id="2NaOHyG4xaPGturMcbHV-8" style="edgeStyle=orthogonalEdgeStyle;html=1;exitX=1;exitY=0.5;exitDx=0;exitDy=0;fontSize=24;" parent="n5Z6GCW2si426lApyZtX-14" source="2NaOHyG4xaPGturMcbHV-5" target="2NaOHyG4xaPGturMcbHV-7" edge="1">
                    <mxGeometry relative="1" as="geometry"/>
                </mxCell>
                <mxCell id="2NaOHyG4xaPGturMcbHV-5" value="payment service" style="rounded=0;whiteSpace=wrap;html=1;strokeColor=default;strokeWidth=1;" parent="n5Z6GCW2si426lApyZtX-14" vertex="1">
                    <mxGeometry x="900" y="500" width="150" height="30" as="geometry"/>
                </mxCell>
                <mxCell id="2NaOHyG4xaPGturMcbHV-7" value="Transaction table" style="shape=cylinder3;whiteSpace=wrap;html=1;boundedLbl=1;backgroundOutline=1;size=15;strokeColor=default;strokeWidth=1;" parent="n5Z6GCW2si426lApyZtX-14" vertex="1">
                    <mxGeometry x="1180" y="460" width="60" height="80" as="geometry"/>
                </mxCell>
                <mxCell id="2NaOHyG4xaPGturMcbHV-13" value="webhook" style="text;html=1;align=center;verticalAlign=middle;resizable=0;points=[];autosize=1;strokeColor=none;fillColor=none;fontSize=24;strokeWidth=1;" parent="n5Z6GCW2si426lApyZtX-14" vertex="1">
                    <mxGeometry x="1140" y="850" width="120" height="40" as="geometry"/>
                </mxCell>
                <mxCell id="tB8Hmze4Lxqi82XClHvX-1" value="Product media table" style="shape=cylinder3;whiteSpace=wrap;html=1;boundedLbl=1;backgroundOutline=1;size=15;strokeColor=default;strokeWidth=1;" parent="n5Z6GCW2si426lApyZtX-14" vertex="1">
                    <mxGeometry x="740" y="540" width="60" height="80" as="geometry"/>
                </mxCell>
                <mxCell id="N7rUhKqNl-zuRs4ZJlps-4" style="edgeStyle=orthogonalEdgeStyle;html=1;exitX=1;exitY=0.5;exitDx=0;exitDy=0;entryX=0;entryY=0;entryDx=0;entryDy=52.5;entryPerimeter=0;fontSize=24;" parent="n5Z6GCW2si426lApyZtX-14" source="N7rUhKqNl-zuRs4ZJlps-1" target="N7rUhKqNl-zuRs4ZJlps-3" edge="1">
                    <mxGeometry relative="1" as="geometry"/>
                </mxCell>
                <mxCell id="N7rUhKqNl-zuRs4ZJlps-5" style="edgeStyle=orthogonalEdgeStyle;html=1;exitX=0.25;exitY=0;exitDx=0;exitDy=0;entryX=0;entryY=1;entryDx=0;entryDy=0;fontSize=24;" parent="n5Z6GCW2si426lApyZtX-14" source="N7rUhKqNl-zuRs4ZJlps-1" target="n5Z6GCW2si426lApyZtX-15" edge="1">
                    <mxGeometry relative="1" as="geometry">
                        <Array as="points">
                            <mxPoint x="900" y="640"/>
                            <mxPoint x="900" y="475"/>
                            <mxPoint x="805" y="475"/>
                        </Array>
                    </mxGeometry>
                </mxCell>
                <mxCell id="N7rUhKqNl-zuRs4ZJlps-1" value="blog service" style="rounded=0;whiteSpace=wrap;html=1;strokeColor=default;strokeWidth=1;" parent="n5Z6GCW2si426lApyZtX-14" vertex="1">
                    <mxGeometry x="950" y="720" width="150" height="30" as="geometry"/>
                </mxCell>
                <mxCell id="N7rUhKqNl-zuRs4ZJlps-3" value="Blog table" style="shape=cylinder3;whiteSpace=wrap;html=1;boundedLbl=1;backgroundOutline=1;size=15;strokeColor=default;strokeWidth=1;" parent="n5Z6GCW2si426lApyZtX-14" vertex="1">
                    <mxGeometry x="1180" y="610" width="60" height="80" as="geometry"/>
                </mxCell>
                <mxCell id="MTuYySaoUUEbI9uCBDCs-11" value="&lt;h1&gt;Fnctional Requirements&lt;/h1&gt;&lt;div&gt;&lt;ul&gt;&lt;li&gt;search for a product&lt;/li&gt;&lt;li&gt;add product to cart&lt;/li&gt;&lt;li&gt;place order&lt;/li&gt;&lt;li&gt;check order Status&lt;/li&gt;&lt;/ul&gt;&lt;/div&gt;" style="text;html=1;strokeColor=default;fillColor=none;spacing=5;spacingTop=-20;whiteSpace=wrap;overflow=hidden;rounded=0;strokeWidth=1;" parent="1" vertex="1">
                    <mxGeometry x="10" y="10" width="270" height="180" as="geometry"/>
                </mxCell>
                <mxCell id="XB7kCRzpM94ZgFK-Kja2-6" style="edgeStyle=orthogonalEdgeStyle;html=1;exitX=1;exitY=0.75;exitDx=0;exitDy=0;entryX=0;entryY=0;entryDx=0;entryDy=52.5;entryPerimeter=0;" parent="1" source="XB7kCRzpM94ZgFK-Kja2-2" target="XB7kCRzpM94ZgFK-Kja2-5" edge="1">
                    <mxGeometry relative="1" as="geometry"/>
                </mxCell>
                <mxCell id="n5Z6GCW2si426lApyZtX-9" style="edgeStyle=orthogonalEdgeStyle;html=1;exitX=0.75;exitY=1;exitDx=0;exitDy=0;entryX=0.75;entryY=0;entryDx=0;entryDy=0;" parent="1" source="XB7kCRzpM94ZgFK-Kja2-2" target="XB7kCRzpM94ZgFK-Kja2-7" edge="1">
                    <mxGeometry relative="1" as="geometry"/>
                </mxCell>
                <mxCell id="n5Z6GCW2si426lApyZtX-11" style="edgeStyle=orthogonalEdgeStyle;html=1;exitX=0;exitY=1;exitDx=0;exitDy=0;entryX=0;entryY=0.25;entryDx=0;entryDy=0;" parent="1" source="XB7kCRzpM94ZgFK-Kja2-2" target="XB7kCRzpM94ZgFK-Kja2-8" edge="1">
                    <mxGeometry relative="1" as="geometry">
                        <Array as="points">
                            <mxPoint x="230" y="390"/>
                            <mxPoint x="230" y="480"/>
                            <mxPoint x="220" y="480"/>
                            <mxPoint x="220" y="557"/>
                        </Array>
                    </mxGeometry>
                </mxCell>
                <mxCell id="XB7kCRzpM94ZgFK-Kja2-2" value="users service" style="rounded=0;whiteSpace=wrap;html=1;strokeColor=default;strokeWidth=1;" parent="1" vertex="1">
                    <mxGeometry x="270" y="360" width="150" height="30" as="geometry"/>
                </mxCell>
                <mxCell id="XB7kCRzpM94ZgFK-Kja2-5" value="users table" style="shape=cylinder3;whiteSpace=wrap;html=1;boundedLbl=1;backgroundOutline=1;size=15;strokeColor=default;strokeWidth=1;" parent="1" vertex="1">
                    <mxGeometry x="600" y="300" width="60" height="80" as="geometry"/>
                </mxCell>
                <mxCell id="XB7kCRzpM94ZgFK-Kja2-14" style="edgeStyle=orthogonalEdgeStyle;html=1;exitX=1;exitY=0.5;exitDx=0;exitDy=0;entryX=0;entryY=0.5;entryDx=0;entryDy=0;entryPerimeter=0;" parent="1" source="XB7kCRzpM94ZgFK-Kja2-7" target="XB7kCRzpM94ZgFK-Kja2-11" edge="1">
                    <mxGeometry relative="1" as="geometry"/>
                </mxCell>
                <mxCell id="XB7kCRzpM94ZgFK-Kja2-16" style="edgeStyle=orthogonalEdgeStyle;html=1;exitX=0.75;exitY=1;exitDx=0;exitDy=0;entryX=0.75;entryY=0;entryDx=0;entryDy=0;" parent="1" source="XB7kCRzpM94ZgFK-Kja2-7" target="XB7kCRzpM94ZgFK-Kja2-9" edge="1">
                    <mxGeometry relative="1" as="geometry">
                        <Array as="points">
                            <mxPoint x="383" y="510"/>
                            <mxPoint x="700" y="510"/>
                            <mxPoint x="700" y="700"/>
                            <mxPoint x="623" y="700"/>
                        </Array>
                    </mxGeometry>
                </mxCell>
                <mxCell id="XB7kCRzpM94ZgFK-Kja2-7" value="cart service" style="rounded=0;whiteSpace=wrap;html=1;strokeColor=default;strokeWidth=1;" parent="1" vertex="1">
                    <mxGeometry x="270" y="460" width="150" height="30" as="geometry"/>
                </mxCell>
                <mxCell id="XB7kCRzpM94ZgFK-Kja2-15" style="edgeStyle=orthogonalEdgeStyle;html=1;exitX=1;exitY=0.5;exitDx=0;exitDy=0;entryX=0;entryY=0;entryDx=0;entryDy=52.5;entryPerimeter=0;" parent="1" source="XB7kCRzpM94ZgFK-Kja2-8" target="XB7kCRzpM94ZgFK-Kja2-12" edge="1">
                    <mxGeometry relative="1" as="geometry"/>
                </mxCell>
                <mxCell id="uWovyJY46RlEmJugSQSJ-3" style="edgeStyle=orthogonalEdgeStyle;html=1;exitX=1;exitY=1;exitDx=0;exitDy=0;" parent="1" source="XB7kCRzpM94ZgFK-Kja2-8" target="XB7kCRzpM94ZgFK-Kja2-9" edge="1">
                    <mxGeometry relative="1" as="geometry">
                        <Array as="points">
                            <mxPoint x="220" y="580"/>
                            <mxPoint x="220" y="730"/>
                            <mxPoint x="585" y="730"/>
                        </Array>
                    </mxGeometry>
                </mxCell>
                <mxCell id="n5Z6GCW2si426lApyZtX-10" style="edgeStyle=orthogonalEdgeStyle;html=1;exitX=0.75;exitY=0;exitDx=0;exitDy=0;entryX=0.25;entryY=1;entryDx=0;entryDy=0;" parent="1" source="XB7kCRzpM94ZgFK-Kja2-8" target="XB7kCRzpM94ZgFK-Kja2-7" edge="1">
                    <mxGeometry relative="1" as="geometry"/>
                </mxCell>
                <mxCell id="XB7kCRzpM94ZgFK-Kja2-8" value="order service" style="rounded=0;whiteSpace=wrap;html=1;strokeColor=default;strokeWidth=1;" parent="1" vertex="1">
                    <mxGeometry x="270" y="550" width="150" height="30" as="geometry"/>
                </mxCell>
                <mxCell id="XB7kCRzpM94ZgFK-Kja2-19" style="edgeStyle=orthogonalEdgeStyle;html=1;exitX=1;exitY=0.5;exitDx=0;exitDy=0;entryX=0.5;entryY=1;entryDx=0;entryDy=0;entryPerimeter=0;" parent="1" source="XB7kCRzpM94ZgFK-Kja2-9" target="XB7kCRzpM94ZgFK-Kja2-17" edge="1">
                    <mxGeometry relative="1" as="geometry"/>
                </mxCell>
                <mxCell id="tB8Hmze4Lxqi82XClHvX-4" style="edgeStyle=orthogonalEdgeStyle;html=1;exitX=0.75;exitY=1;exitDx=0;exitDy=0;fontSize=24;" parent="1" source="XB7kCRzpM94ZgFK-Kja2-9" target="tB8Hmze4Lxqi82XClHvX-1" edge="1">
                    <mxGeometry relative="1" as="geometry"/>
                </mxCell>
                <mxCell id="XB7kCRzpM94ZgFK-Kja2-9" value="inventory service" style="rounded=0;whiteSpace=wrap;html=1;strokeColor=default;strokeWidth=1;" parent="1" vertex="1">
                    <mxGeometry x="310" y="800" width="150" height="30" as="geometry"/>
                </mxCell>
                <mxCell id="XB7kCRzpM94ZgFK-Kja2-18" style="edgeStyle=orthogonalEdgeStyle;html=1;exitX=1;exitY=0.5;exitDx=0;exitDy=0;entryX=0;entryY=0.5;entryDx=0;entryDy=0;entryPerimeter=0;" parent="1" source="XB7kCRzpM94ZgFK-Kja2-10" target="XB7kCRzpM94ZgFK-Kja2-17" edge="1">
                    <mxGeometry relative="1" as="geometry"/>
                </mxCell>
                <mxCell id="XB7kCRzpM94ZgFK-Kja2-10" value="search service" style="rounded=0;whiteSpace=wrap;html=1;strokeColor=default;strokeWidth=1;" parent="1" vertex="1">
                    <mxGeometry x="270" y="640" width="150" height="30" as="geometry"/>
                </mxCell>
                <mxCell id="XB7kCRzpM94ZgFK-Kja2-11" value="Cart &lt;br&gt;table" style="shape=cylinder3;whiteSpace=wrap;html=1;boundedLbl=1;backgroundOutline=1;size=15;strokeColor=default;strokeWidth=1;" parent="1" vertex="1">
                    <mxGeometry x="600" y="420" width="60" height="80" as="geometry"/>
                </mxCell>
                <mxCell id="XB7kCRzpM94ZgFK-Kja2-12" value="order &lt;br&gt;table" style="shape=cylinder3;whiteSpace=wrap;html=1;boundedLbl=1;backgroundOutline=1;size=15;strokeColor=default;strokeWidth=1;" parent="1" vertex="1">
                    <mxGeometry x="580" y="540" width="60" height="80" as="geometry"/>
                </mxCell>
                <mxCell id="tB8Hmze4Lxqi82XClHvX-3" style="edgeStyle=orthogonalEdgeStyle;html=1;exitX=1;exitY=0;exitDx=0;exitDy=52.5;exitPerimeter=0;fontSize=24;" parent="1" source="XB7kCRzpM94ZgFK-Kja2-17" target="tB8Hmze4Lxqi82XClHvX-1" edge="1">
                    <mxGeometry relative="1" as="geometry"/>
                </mxCell>
                <mxCell id="XB7kCRzpM94ZgFK-Kja2-17" value="Product table" style="shape=cylinder3;whiteSpace=wrap;html=1;boundedLbl=1;backgroundOutline=1;size=15;strokeColor=default;strokeWidth=1;" parent="1" vertex="1">
                    <mxGeometry x="790" y="600" width="60" height="80" as="geometry"/>
                </mxCell>
                <mxCell id="XB7kCRzpM94ZgFK-Kja2-20" value="Product redis Cache" style="shape=cylinder3;whiteSpace=wrap;html=1;boundedLbl=1;backgroundOutline=1;size=15;strokeColor=default;strokeWidth=1;" parent="1" vertex="1">
                    <mxGeometry x="710" y="760" width="60" height="80" as="geometry"/>
                </mxCell>
                <mxCell id="XB7kCRzpM94ZgFK-Kja2-22" style="edgeStyle=orthogonalEdgeStyle;html=1;exitX=0.5;exitY=1;exitDx=0;exitDy=0;entryX=0.5;entryY=0;entryDx=0;entryDy=0;" parent="1" source="XB7kCRzpM94ZgFK-Kja2-21" target="XB7kCRzpM94ZgFK-Kja2-2" edge="1">
                    <mxGeometry relative="1" as="geometry"/>
                </mxCell>
                <mxCell id="uWovyJY46RlEmJugSQSJ-5" style="edgeStyle=orthogonalEdgeStyle;html=1;exitX=1;exitY=0;exitDx=0;exitDy=0;entryX=0;entryY=0;entryDx=0;entryDy=52.5;entryPerimeter=0;" parent="1" source="XB7kCRzpM94ZgFK-Kja2-21" target="uWovyJY46RlEmJugSQSJ-4" edge="1">
                    <mxGeometry relative="1" as="geometry"/>
                </mxCell>
                <mxCell id="XB7kCRzpM94ZgFK-Kja2-21" value="auth service" style="rounded=0;whiteSpace=wrap;html=1;strokeColor=default;strokeWidth=1;" parent="1" vertex="1">
                    <mxGeometry x="270" y="250" width="150" height="30" as="geometry"/>
                </mxCell>
                <mxCell id="n5Z6GCW2si426lApyZtX-8" style="edgeStyle=orthogonalEdgeStyle;html=1;exitX=1;exitY=0.5;exitDx=0;exitDy=0;exitPerimeter=0;entryX=0;entryY=1;entryDx=0;entryDy=-15;entryPerimeter=0;" parent="1" source="mVeNfJGXjzSZOwDNEuAf-1" target="n5Z6GCW2si426lApyZtX-3" edge="1">
                    <mxGeometry relative="1" as="geometry"/>
                </mxCell>
                <mxCell id="mVeNfJGXjzSZOwDNEuAf-1" value="Search redis Cache" style="shape=cylinder3;whiteSpace=wrap;html=1;boundedLbl=1;backgroundOutline=1;size=15;strokeColor=default;strokeWidth=1;" parent="1" vertex="1">
                    <mxGeometry x="480" y="615" width="60" height="80" as="geometry"/>
                </mxCell>
                <mxCell id="n5Z6GCW2si426lApyZtX-2" style="edgeStyle=orthogonalEdgeStyle;html=1;exitX=0.5;exitY=0.5;exitDx=0;exitDy=0;exitPerimeter=0;entryX=0.001;entryY=0.406;entryDx=0;entryDy=0;entryPerimeter=0;" parent="1" source="uWovyJY46RlEmJugSQSJ-1" edge="1">
                    <mxGeometry relative="1" as="geometry">
                        <mxPoint x="181.13999999999987" y="602.8399999999999" as="targetPoint"/>
                    </mxGeometry>
                </mxCell>
                <mxCell id="2NaOHyG4xaPGturMcbHV-15" value="Http" style="edgeLabel;html=1;align=center;verticalAlign=middle;resizable=0;points=[];fontSize=24;" parent="n5Z6GCW2si426lApyZtX-2" vertex="1" connectable="0">
                    <mxGeometry x="-0.5631" y="2" relative="1" as="geometry">
                        <mxPoint x="1" as="offset"/>
                    </mxGeometry>
                </mxCell>
                <mxCell id="2NaOHyG4xaPGturMcbHV-2" style="edgeStyle=orthogonalEdgeStyle;html=1;exitX=0;exitY=1;exitDx=0;exitDy=0;exitPerimeter=0;entryX=0;entryY=0;entryDx=0;entryDy=75;entryPerimeter=0;fontSize=24;" parent="1" source="uWovyJY46RlEmJugSQSJ-1" target="2NaOHyG4xaPGturMcbHV-1" edge="1">
                    <mxGeometry relative="1" as="geometry"/>
                </mxCell>
                <mxCell id="2NaOHyG4xaPGturMcbHV-14" style="edgeStyle=orthogonalEdgeStyle;html=1;exitX=1;exitY=1;exitDx=0;exitDy=0;exitPerimeter=0;entryX=0.5;entryY=1;entryDx=0;entryDy=0;fontSize=24;" parent="1" source="uWovyJY46RlEmJugSQSJ-1" target="2NaOHyG4xaPGturMcbHV-10" edge="1">
                    <mxGeometry relative="1" as="geometry">
                        <Array as="points">
                            <mxPoint x="60" y="1060"/>
                            <mxPoint x="1785" y="1060"/>
                        </Array>
                    </mxGeometry>
                </mxCell>
                <mxCell id="uWovyJY46RlEmJugSQSJ-1" value="Client" style="shape=umlActor;verticalLabelPosition=bottom;verticalAlign=top;html=1;outlineConnect=0;strokeColor=default;strokeWidth=1;" parent="1" vertex="1">
                    <mxGeometry x="30" y="390" width="30" height="60" as="geometry"/>
                </mxCell>
                <mxCell id="uWovyJY46RlEmJugSQSJ-4" value="otp &lt;br&gt;Cache" style="shape=cylinder3;whiteSpace=wrap;html=1;boundedLbl=1;backgroundOutline=1;size=15;strokeColor=default;strokeWidth=1;" parent="1" vertex="1">
                    <mxGeometry x="500" y="150" width="60" height="80" as="geometry"/>
                </mxCell>
                <mxCell id="n5Z6GCW2si426lApyZtX-3" value="Cstegory table" style="shape=cylinder3;whiteSpace=wrap;html=1;boundedLbl=1;backgroundOutline=1;size=15;strokeColor=default;strokeWidth=1;" parent="1" vertex="1">
                    <mxGeometry x="870" y="460" width="60" height="80" as="geometry"/>
                </mxCell>
                <mxCell id="n5Z6GCW2si426lApyZtX-16" style="edgeStyle=orthogonalEdgeStyle;html=1;exitX=0;exitY=0.5;exitDx=0;exitDy=0;entryX=0.75;entryY=0;entryDx=0;entryDy=0;" parent="1" source="n5Z6GCW2si426lApyZtX-15" target="XB7kCRzpM94ZgFK-Kja2-2" edge="1">
                    <mxGeometry relative="1" as="geometry">
                        <Array as="points">
                            <mxPoint x="810" y="365"/>
                            <mxPoint x="810" y="250"/>
                            <mxPoint x="500" y="250"/>
                            <mxPoint x="500" y="360"/>
                        </Array>
                    </mxGeometry>
                </mxCell>
                <mxCell id="n5Z6GCW2si426lApyZtX-17" style="edgeStyle=orthogonalEdgeStyle;html=1;exitX=0.25;exitY=1;exitDx=0;exitDy=0;entryX=0.5;entryY=1;entryDx=0;entryDy=0;" parent="1" source="n5Z6GCW2si426lApyZtX-15" target="XB7kCRzpM94ZgFK-Kja2-9" edge="1">
                    <mxGeometry relative="1" as="geometry"/>
                </mxCell>
                <mxCell id="n5Z6GCW2si426lApyZtX-20" style="edgeStyle=orthogonalEdgeStyle;html=1;exitX=0.5;exitY=0.5;exitDx=0;exitDy=0;exitPerimeter=0;entryX=1;entryY=0.339;entryDx=0;entryDy=0;entryPerimeter=0;" parent="1" source="n5Z6GCW2si426lApyZtX-19" target="n5Z6GCW2si426lApyZtX-14" edge="1">
                    <mxGeometry relative="1" as="geometry"/>
                </mxCell>
                <mxCell id="n5Z6GCW2si426lApyZtX-19" value="Admin" style="shape=umlActor;verticalLabelPosition=bottom;verticalAlign=top;html=1;outlineConnect=0;strokeColor=default;strokeWidth=1;" parent="1" vertex="1">
                    <mxGeometry x="1780" y="370" width="30" height="60" as="geometry"/>
                </mxCell>
                <mxCell id="n5Z6GCW2si426lApyZtX-22" style="edgeStyle=orthogonalEdgeStyle;html=1;exitX=0.25;exitY=0;exitDx=0;exitDy=0;entryX=1;entryY=0.25;entryDx=0;entryDy=0;" parent="1" source="n5Z6GCW2si426lApyZtX-15" target="XB7kCRzpM94ZgFK-Kja2-21" edge="1">
                    <mxGeometry relative="1" as="geometry">
                        <Array as="points">
                            <mxPoint x="1043" y="240"/>
                            <mxPoint x="420" y="240"/>
                        </Array>
                    </mxGeometry>
                </mxCell>
                <mxCell id="n5Z6GCW2si426lApyZtX-28" style="edgeStyle=orthogonalEdgeStyle;html=1;exitX=0.5;exitY=1;exitDx=0;exitDy=0;entryX=0.108;entryY=1.046;entryDx=0;entryDy=0;entryPerimeter=0;" parent="1" source="n5Z6GCW2si426lApyZtX-15" target="XB7kCRzpM94ZgFK-Kja2-8" edge="1">
                    <mxGeometry relative="1" as="geometry">
                        <Array as="points">
                            <mxPoint x="1080" y="920"/>
                            <mxPoint x="230" y="920"/>
                            <mxPoint x="230" y="581"/>
                        </Array>
                    </mxGeometry>
                </mxCell>
                <mxCell id="2NaOHyG4xaPGturMcbHV-1" value="&lt;font style=&quot;font-size: 24px;&quot;&gt;Cloudinary&lt;/font&gt;" style="shape=cylinder3;whiteSpace=wrap;html=1;boundedLbl=1;backgroundOutline=1;size=15;strokeColor=default;strokeWidth=1;" parent="1" vertex="1">
                    <mxGeometry x="840" y="1070" width="520" height="110" as="geometry"/>
                </mxCell>
                <mxCell id="2NaOHyG4xaPGturMcbHV-9" style="edgeStyle=orthogonalEdgeStyle;html=1;exitX=0;exitY=0.5;exitDx=0;exitDy=0;entryX=1;entryY=0;entryDx=0;entryDy=0;fontSize=24;" parent="1" source="2NaOHyG4xaPGturMcbHV-5" target="XB7kCRzpM94ZgFK-Kja2-8" edge="1">
                    <mxGeometry relative="1" as="geometry"/>
                </mxCell>
                <mxCell id="2NaOHyG4xaPGturMcbHV-12" style="edgeStyle=orthogonalEdgeStyle;html=1;exitX=0;exitY=1;exitDx=0;exitDy=0;entryX=0.25;entryY=1;entryDx=0;entryDy=0;fontSize=24;" parent="1" source="2NaOHyG4xaPGturMcbHV-10" target="2NaOHyG4xaPGturMcbHV-5" edge="1">
                    <mxGeometry relative="1" as="geometry"/>
                </mxCell>
                <mxCell id="2NaOHyG4xaPGturMcbHV-10" value="Raven" style="rhombus;whiteSpace=wrap;html=1;strokeColor=default;strokeWidth=1;fontSize=24;" parent="1" vertex="1">
                    <mxGeometry x="1680" y="740" width="210" height="270" as="geometry"/>
                </mxCell>
                <mxCell id="2NaOHyG4xaPGturMcbHV-11" style="edgeStyle=orthogonalEdgeStyle;html=1;exitX=0.75;exitY=1;exitDx=0;exitDy=0;fontSize=24;" parent="1" source="2NaOHyG4xaPGturMcbHV-5" target="2NaOHyG4xaPGturMcbHV-10" edge="1">
                    <mxGeometry relative="1" as="geometry"/>
                </mxCell>
            </root>
        </mxGraphModel>
    </diagram>
    <diagram id="uC-H8Rz72wUWe5CttWwT" name="DB-ARCHITECTURE">
        <mxGraphModel dx="416" dy="965" grid="1" gridSize="10" guides="1" tooltips="1" connect="1" arrows="1" fold="1" page="1" pageScale="1" pageWidth="1600" pageHeight="900" math="0" shadow="0">
            <root>
                <mxCell id="0"/>
                <mxCell id="1" parent="0"/>
                <mxCell id="Oh2e18s1E1wJBl-dXE2C-79" style="edgeStyle=none;html=1;exitX=1;exitY=0.5;exitDx=0;exitDy=0;entryX=0.077;entryY=1.1;entryDx=0;entryDy=0;entryPerimeter=0;startArrow=blockThin;startFill=1;" parent="1" source="6" target="Oh2e18s1E1wJBl-dXE2C-69" edge="1">
                    <mxGeometry relative="1" as="geometry"/>
                </mxCell>
                <mxCell id="6" value="Customer" style="swimlane;whiteSpace=wrap;html=1;" parent="1" vertex="1">
                    <mxGeometry x="40" y="20" width="220" height="280" as="geometry"/>
                </mxCell>
                <mxCell id="8" value="password" style="text;html=1;align=center;verticalAlign=middle;resizable=0;points=[];autosize=1;strokeColor=none;fillColor=none;" parent="6" vertex="1">
                    <mxGeometry x="13" y="82" width="70" height="30" as="geometry"/>
                </mxCell>
                <mxCell id="7" value="email" style="text;html=1;align=center;verticalAlign=middle;resizable=0;points=[];autosize=1;strokeColor=none;fillColor=none;" parent="6" vertex="1">
                    <mxGeometry x="12" y="45" width="50" height="30" as="geometry"/>
                </mxCell>
                <mxCell id="xi6H6-T2mlmUW2kWonAm-69" value="phoneNumber" style="text;html=1;align=center;verticalAlign=middle;resizable=0;points=[];autosize=1;strokeColor=none;fillColor=none;" parent="6" vertex="1">
                    <mxGeometry x="130" y="40" width="100" height="30" as="geometry"/>
                </mxCell>
                <mxCell id="9" value="firstName" style="text;html=1;align=center;verticalAlign=middle;resizable=0;points=[];autosize=1;strokeColor=none;fillColor=none;" parent="1" vertex="1">
                    <mxGeometry x="51" y="130" width="70" height="30" as="geometry"/>
                </mxCell>
                <mxCell id="10" value="lastName" style="text;html=1;align=center;verticalAlign=middle;resizable=0;points=[];autosize=1;strokeColor=none;fillColor=none;" parent="1" vertex="1">
                    <mxGeometry x="50" y="166" width="70" height="30" as="geometry"/>
                </mxCell>
                <mxCell id="11" value="orders" style="text;html=1;align=center;verticalAlign=middle;resizable=0;points=[];autosize=1;strokeColor=none;fillColor=none;" parent="1" vertex="1">
                    <mxGeometry x="48" y="198" width="60" height="30" as="geometry"/>
                </mxCell>
                <mxCell id="13" value="createdAt" style="text;html=1;align=center;verticalAlign=middle;resizable=0;points=[];autosize=1;strokeColor=none;fillColor=none;" parent="1" vertex="1">
                    <mxGeometry x="51" y="227" width="70" height="30" as="geometry"/>
                </mxCell>
                <mxCell id="14" value="updatedAt" style="text;html=1;align=center;verticalAlign=middle;resizable=0;points=[];autosize=1;strokeColor=none;fillColor=none;" parent="1" vertex="1">
                    <mxGeometry x="48" y="255" width="80" height="30" as="geometry"/>
                </mxCell>
                <mxCell id="16" value="id" style="text;html=1;align=center;verticalAlign=middle;resizable=0;points=[];autosize=1;strokeColor=none;fillColor=none;" parent="1" vertex="1">
                    <mxGeometry x="57" y="45" width="30" height="30" as="geometry"/>
                </mxCell>
                <mxCell id="40" value="role" style="text;html=1;align=center;verticalAlign=middle;resizable=0;points=[];autosize=1;strokeColor=none;fillColor=none;" parent="1" vertex="1">
                    <mxGeometry x="54" y="82" width="40" height="30" as="geometry"/>
                </mxCell>
                <mxCell id="pufAP5EOaPbRUr3e95Tp-69" style="edgeStyle=none;html=1;exitX=0;exitY=0.5;exitDx=0;exitDy=0;entryX=1;entryY=0.5;entryDx=0;entryDy=0;startArrow=block;startFill=1;" parent="1" source="54" target="12" edge="1">
                    <mxGeometry relative="1" as="geometry"/>
                </mxCell>
                <mxCell id="55" value="" style="group" parent="1" vertex="1" connectable="0">
                    <mxGeometry x="890" y="590" width="200" height="220" as="geometry"/>
                </mxCell>
                <mxCell id="47" value="Blogs" style="swimlane;whiteSpace=wrap;html=1;" parent="55" vertex="1">
                    <mxGeometry width="200" height="220" as="geometry"/>
                </mxCell>
                <mxCell id="49" value="title" style="text;html=1;align=center;verticalAlign=middle;resizable=0;points=[];autosize=1;strokeColor=none;fillColor=none;" parent="47" vertex="1">
                    <mxGeometry x="13" y="65" width="40" height="30" as="geometry"/>
                </mxCell>
                <mxCell id="50" value="description" style="text;html=1;align=center;verticalAlign=middle;resizable=0;points=[];autosize=1;strokeColor=none;fillColor=none;" parent="47" vertex="1">
                    <mxGeometry x="13" y="95" width="80" height="30" as="geometry"/>
                </mxCell>
                <mxCell id="pufAP5EOaPbRUr3e95Tp-78" value="admin_id" style="text;html=1;align=center;verticalAlign=middle;resizable=0;points=[];autosize=1;strokeColor=none;fillColor=none;" parent="47" vertex="1">
                    <mxGeometry x="14" y="180" width="70" height="30" as="geometry"/>
                </mxCell>
                <mxCell id="48" value="id" style="text;html=1;align=center;verticalAlign=middle;resizable=0;points=[];autosize=1;strokeColor=none;fillColor=none;" parent="55" vertex="1">
                    <mxGeometry x="15" y="35" width="30" height="30" as="geometry"/>
                </mxCell>
                <mxCell id="51" value="createdAt" style="text;html=1;align=center;verticalAlign=middle;resizable=0;points=[];autosize=1;strokeColor=none;fillColor=none;" parent="55" vertex="1">
                    <mxGeometry x="16" y="125" width="70" height="30" as="geometry"/>
                </mxCell>
                <mxCell id="52" value="updatedAt" style="text;html=1;align=center;verticalAlign=middle;resizable=0;points=[];autosize=1;strokeColor=none;fillColor=none;" parent="55" vertex="1">
                    <mxGeometry x="11" y="155" width="80" height="30" as="geometry"/>
                </mxCell>
                <mxCell id="62" value="" style="group" parent="1" vertex="1" connectable="0">
                    <mxGeometry x="1350" y="610" width="200" height="250" as="geometry"/>
                </mxCell>
                <mxCell id="36" value="admin" style="swimlane;whiteSpace=wrap;html=1;" parent="62" vertex="1">
                    <mxGeometry width="200" height="210" as="geometry"/>
                </mxCell>
                <mxCell id="41" value="createdAt" style="text;html=1;align=center;verticalAlign=middle;resizable=0;points=[];autosize=1;strokeColor=none;fillColor=none;" parent="36" vertex="1">
                    <mxGeometry x="5" y="122" width="70" height="30" as="geometry"/>
                </mxCell>
                <mxCell id="pufAP5EOaPbRUr3e95Tp-80" value="lastName" style="text;html=1;align=center;verticalAlign=middle;resizable=0;points=[];autosize=1;strokeColor=none;fillColor=none;" parent="36" vertex="1">
                    <mxGeometry x="5.5" y="145" width="70" height="30" as="geometry"/>
                </mxCell>
                <mxCell id="37" value="id" style="text;html=1;align=center;verticalAlign=middle;resizable=0;points=[];autosize=1;strokeColor=none;fillColor=none;" parent="62" vertex="1">
                    <mxGeometry x="5" y="25" width="30" height="30" as="geometry"/>
                </mxCell>
                <mxCell id="38" value="adminType" style="text;html=1;align=center;verticalAlign=middle;resizable=0;points=[];autosize=1;strokeColor=none;fillColor=none;" parent="62" vertex="1">
                    <mxGeometry x="4" y="49" width="80" height="30" as="geometry"/>
                </mxCell>
                <mxCell id="39" value="role" style="text;html=1;align=center;verticalAlign=middle;resizable=0;points=[];autosize=1;strokeColor=none;fillColor=none;" parent="62" vertex="1">
                    <mxGeometry x="7" y="75" width="40" height="30" as="geometry"/>
                </mxCell>
                <mxCell id="42" value="updatedAt" style="text;html=1;align=center;verticalAlign=middle;resizable=0;points=[];autosize=1;strokeColor=none;fillColor=none;" parent="62" vertex="1">
                    <mxGeometry x="1" y="169" width="80" height="30" as="geometry"/>
                </mxCell>
                <mxCell id="pufAP5EOaPbRUr3e95Tp-77" value="" style="group" parent="1" vertex="1" connectable="0">
                    <mxGeometry x="30" y="470" width="344.5" height="270" as="geometry"/>
                </mxCell>
                <mxCell id="12" value="Order" style="swimlane;whiteSpace=wrap;html=1;" parent="pufAP5EOaPbRUr3e95Tp-77" vertex="1">
                    <mxGeometry width="325.98955223880597" height="270" as="geometry"/>
                </mxCell>
                <mxCell id="29" value="" style="edgeStyle=none;html=1;" parent="12" source="27" edge="1">
                    <mxGeometry relative="1" as="geometry">
                        <mxPoint x="138.82835820895522" y="75" as="targetPoint"/>
                    </mxGeometry>
                </mxCell>
                <mxCell id="27" value="products" style="text;html=1;align=center;verticalAlign=middle;resizable=0;points=[];autosize=1;strokeColor=none;fillColor=none;" parent="12" vertex="1">
                    <mxGeometry x="10.283582089552239" y="60" width="70" height="30" as="geometry"/>
                </mxCell>
                <mxCell id="30" value="(productID,quantity)" style="text;html=1;align=center;verticalAlign=middle;resizable=0;points=[];autosize=1;strokeColor=none;fillColor=none;" parent="12" vertex="1">
                    <mxGeometry x="140.88507462686567" y="60" width="130" height="30" as="geometry"/>
                </mxCell>
                <mxCell id="31" value="customer_id" style="text;html=1;align=center;verticalAlign=middle;resizable=0;points=[];autosize=1;strokeColor=none;fillColor=none;" parent="12" vertex="1">
                    <mxGeometry x="10.283582089552239" y="85" width="90" height="30" as="geometry"/>
                </mxCell>
                <mxCell id="34" value="UpdatedAt" style="text;html=1;align=center;verticalAlign=middle;resizable=0;points=[];autosize=1;strokeColor=none;fillColor=none;" parent="12" vertex="1">
                    <mxGeometry x="8.226865671641791" y="181" width="80" height="30" as="geometry"/>
                </mxCell>
                <mxCell id="26" value="id" style="text;html=1;align=center;verticalAlign=middle;resizable=0;points=[];autosize=1;strokeColor=none;fillColor=none;" parent="pufAP5EOaPbRUr3e95Tp-77" vertex="1">
                    <mxGeometry x="12.340298507462688" y="35" width="30" height="30" as="geometry"/>
                </mxCell>
                <mxCell id="33" value="createdAt" style="text;html=1;align=center;verticalAlign=middle;resizable=0;points=[];autosize=1;strokeColor=none;fillColor=none;" parent="pufAP5EOaPbRUr3e95Tp-77" vertex="1">
                    <mxGeometry x="11.311940298507462" y="155" width="70" height="30" as="geometry"/>
                </mxCell>
                <mxCell id="35" value="total" style="text;html=1;align=center;verticalAlign=middle;resizable=0;points=[];autosize=1;strokeColor=none;fillColor=none;" parent="pufAP5EOaPbRUr3e95Tp-77" vertex="1">
                    <mxGeometry x="8.198507462686567" y="201" width="50" height="30" as="geometry"/>
                </mxCell>
                <mxCell id="53" value="expected dilivery date" style="text;html=1;align=center;verticalAlign=middle;resizable=0;points=[];autosize=1;strokeColor=none;fillColor=none;" parent="pufAP5EOaPbRUr3e95Tp-77" vertex="1">
                    <mxGeometry x="7.1985074626865675" y="243" width="140" height="30" as="geometry"/>
                </mxCell>
                <mxCell id="pufAP5EOaPbRUr3e95Tp-84" value="orderNumber" style="text;html=1;align=center;verticalAlign=middle;resizable=0;points=[];autosize=1;strokeColor=none;fillColor=none;" parent="pufAP5EOaPbRUr3e95Tp-77" vertex="1">
                    <mxGeometry x="7.1985074626865675" y="108" width="90" height="30" as="geometry"/>
                </mxCell>
                <mxCell id="pufAP5EOaPbRUr3e95Tp-85" value="" style="group" parent="pufAP5EOaPbRUr3e95Tp-77" vertex="1" connectable="0">
                    <mxGeometry x="7.1985074626865675" y="131" width="337.30149253731344" height="35" as="geometry"/>
                </mxCell>
                <mxCell id="32" value="status" style="text;html=1;align=center;verticalAlign=middle;resizable=0;points=[];autosize=1;strokeColor=none;fillColor=none;" parent="pufAP5EOaPbRUr3e95Tp-85" vertex="1">
                    <mxGeometry width="60" height="30" as="geometry"/>
                </mxCell>
                <mxCell id="45" value="" style="edgeStyle=none;orthogonalLoop=1;jettySize=auto;html=1;" parent="pufAP5EOaPbRUr3e95Tp-85" edge="1">
                    <mxGeometry width="100" relative="1" as="geometry">
                        <mxPoint x="20.567164179104477" y="15" as="sourcePoint"/>
                        <mxPoint x="123.40298507462687" y="15" as="targetPoint"/>
                        <Array as="points"/>
                    </mxGeometry>
                </mxCell>
                <mxCell id="46" value="(Processing,Confirmed, shipped,&lt;br&gt;Dilivered, canceled)" style="text;html=1;align=center;verticalAlign=middle;resizable=0;points=[];autosize=1;strokeColor=none;fillColor=none;" parent="pufAP5EOaPbRUr3e95Tp-85" vertex="1">
                    <mxGeometry x="105.21194029850746" y="-5" width="200" height="40" as="geometry"/>
                </mxCell>
                <mxCell id="Oh2e18s1E1wJBl-dXE2C-80" value="address_id" style="text;html=1;align=center;verticalAlign=middle;resizable=0;points=[];autosize=1;strokeColor=none;fillColor=none;" parent="pufAP5EOaPbRUr3e95Tp-77" vertex="1">
                    <mxGeometry x="10.340000000000003" y="221" width="80" height="30" as="geometry"/>
                </mxCell>
                <mxCell id="pufAP5EOaPbRUr3e95Tp-79" value="firstName" style="text;html=1;align=center;verticalAlign=middle;resizable=0;points=[];autosize=1;strokeColor=none;fillColor=none;" parent="1" vertex="1">
                    <mxGeometry x="1355" y="709" width="70" height="30" as="geometry"/>
                </mxCell>
                <mxCell id="pufAP5EOaPbRUr3e95Tp-81" style="edgeStyle=none;html=1;exitX=1;exitY=0.75;exitDx=0;exitDy=0;startArrow=blockThin;startFill=1;" parent="1" source="47" edge="1">
                    <mxGeometry relative="1" as="geometry">
                        <mxPoint x="1340" y="750" as="targetPoint"/>
                    </mxGeometry>
                </mxCell>
                <mxCell id="Oh2e18s1E1wJBl-dXE2C-78" value="" style="group" parent="1" vertex="1" connectable="0">
                    <mxGeometry x="380" y="8" width="180" height="220" as="geometry"/>
                </mxCell>
                <mxCell id="Oh2e18s1E1wJBl-dXE2C-75" value="" style="group" parent="Oh2e18s1E1wJBl-dXE2C-78" vertex="1" connectable="0">
                    <mxGeometry width="180" height="220" as="geometry"/>
                </mxCell>
                <mxCell id="xi6H6-T2mlmUW2kWonAm-74" value="Address" style="swimlane;whiteSpace=wrap;html=1;" parent="Oh2e18s1E1wJBl-dXE2C-75" vertex="1">
                    <mxGeometry x="5.070422535211268" width="174.92957746478874" height="220.00000000000003" as="geometry"/>
                </mxCell>
                <mxCell id="xi6H6-T2mlmUW2kWonAm-76" value="state" style="text;html=1;align=center;verticalAlign=middle;resizable=0;points=[];autosize=1;strokeColor=none;fillColor=none;" parent="xi6H6-T2mlmUW2kWonAm-74" vertex="1">
                    <mxGeometry x="1.8887323943662087" y="50.6" width="50" height="30" as="geometry"/>
                </mxCell>
                <mxCell id="xi6H6-T2mlmUW2kWonAm-77" value="custumer_id" style="text;html=1;align=center;verticalAlign=middle;resizable=0;points=[];autosize=1;strokeColor=none;fillColor=none;" parent="xi6H6-T2mlmUW2kWonAm-74" vertex="1">
                    <mxGeometry x="-2.535211267605634" y="74.80000000000001" width="90" height="30" as="geometry"/>
                </mxCell>
                <mxCell id="xi6H6-T2mlmUW2kWonAm-75" value="id" style="text;html=1;align=center;verticalAlign=middle;resizable=0;points=[];autosize=1;strokeColor=none;fillColor=none;" parent="Oh2e18s1E1wJBl-dXE2C-75" vertex="1">
                    <mxGeometry x="11.408450704225352" y="27.500000000000004" width="30" height="30" as="geometry"/>
                </mxCell>
                <mxCell id="Oh2e18s1E1wJBl-dXE2C-69" value="address" style="text;html=1;align=center;verticalAlign=middle;resizable=0;points=[];autosize=1;strokeColor=none;fillColor=none;" parent="Oh2e18s1E1wJBl-dXE2C-75" vertex="1">
                    <mxGeometry y="97.9" width="70" height="30" as="geometry"/>
                </mxCell>
                <mxCell id="Oh2e18s1E1wJBl-dXE2C-70" value="createdAt" style="text;html=1;align=center;verticalAlign=middle;resizable=0;points=[];autosize=1;strokeColor=none;fillColor=none;" parent="Oh2e18s1E1wJBl-dXE2C-75" vertex="1">
                    <mxGeometry x="6.338028169014085" y="121.00000000000001" width="70" height="30" as="geometry"/>
                </mxCell>
                <mxCell id="Oh2e18s1E1wJBl-dXE2C-72" value="updatedAt" style="text;html=1;align=center;verticalAlign=middle;resizable=0;points=[];autosize=1;strokeColor=none;fillColor=none;" parent="Oh2e18s1E1wJBl-dXE2C-75" vertex="1">
                    <mxGeometry x="1.267605633802817" y="143.60000000000002" width="80" height="30" as="geometry"/>
                </mxCell>
                <mxCell id="Oh2e18s1E1wJBl-dXE2C-74" value="country" style="text;html=1;align=center;verticalAlign=middle;resizable=0;points=[];autosize=1;strokeColor=none;fillColor=none;" parent="Oh2e18s1E1wJBl-dXE2C-75" vertex="1">
                    <mxGeometry x="7.605633802816902" y="168.50000000000003" width="60" height="30" as="geometry"/>
                </mxCell>
                <mxCell id="Oh2e18s1E1wJBl-dXE2C-76" value="default" style="text;html=1;align=center;verticalAlign=middle;resizable=0;points=[];autosize=1;strokeColor=none;fillColor=none;" parent="Oh2e18s1E1wJBl-dXE2C-78" vertex="1">
                    <mxGeometry x="6.338028169014085" y="188" width="60" height="30" as="geometry"/>
                </mxCell>
                <mxCell id="Oh2e18s1E1wJBl-dXE2C-85" value="" style="group" parent="1" vertex="1" connectable="0">
                    <mxGeometry x="630" y="25" width="200" height="245" as="geometry"/>
                </mxCell>
                <mxCell id="17" value="Product" style="swimlane;whiteSpace=wrap;html=1;" parent="Oh2e18s1E1wJBl-dXE2C-85" vertex="1">
                    <mxGeometry width="200" height="245" as="geometry"/>
                </mxCell>
                <mxCell id="22" value="createdAt" style="text;html=1;align=center;verticalAlign=middle;resizable=0;points=[];autosize=1;strokeColor=none;fillColor=none;" parent="17" vertex="1">
                    <mxGeometry x="13" y="115" width="70" height="30" as="geometry"/>
                </mxCell>
                <mxCell id="23" value="updatedAt" style="text;html=1;align=center;verticalAlign=middle;resizable=0;points=[];autosize=1;strokeColor=none;fillColor=none;" parent="17" vertex="1">
                    <mxGeometry x="11" y="140" width="80" height="30" as="geometry"/>
                </mxCell>
                <mxCell id="18" value="id" style="text;html=1;align=center;verticalAlign=middle;resizable=0;points=[];autosize=1;strokeColor=none;fillColor=none;" parent="Oh2e18s1E1wJBl-dXE2C-85" vertex="1">
                    <mxGeometry x="15" y="35" width="30" height="30" as="geometry"/>
                </mxCell>
                <mxCell id="19" value="name" style="text;html=1;align=center;verticalAlign=middle;resizable=0;points=[];autosize=1;strokeColor=none;fillColor=none;" parent="Oh2e18s1E1wJBl-dXE2C-85" vertex="1">
                    <mxGeometry x="13" y="55" width="50" height="30" as="geometry"/>
                </mxCell>
                <mxCell id="20" value="serial number" style="text;html=1;align=center;verticalAlign=middle;resizable=0;points=[];autosize=1;strokeColor=none;fillColor=none;" parent="Oh2e18s1E1wJBl-dXE2C-85" vertex="1">
                    <mxGeometry x="8" y="75" width="100" height="30" as="geometry"/>
                </mxCell>
                <mxCell id="21" value="description" style="text;html=1;align=center;verticalAlign=middle;resizable=0;points=[];autosize=1;strokeColor=none;fillColor=none;" parent="Oh2e18s1E1wJBl-dXE2C-85" vertex="1">
                    <mxGeometry x="12" y="95" width="80" height="30" as="geometry"/>
                </mxCell>
                <mxCell id="24" value="price" style="text;html=1;align=center;verticalAlign=middle;resizable=0;points=[];autosize=1;strokeColor=none;fillColor=none;" parent="Oh2e18s1E1wJBl-dXE2C-85" vertex="1">
                    <mxGeometry x="10" y="165" width="50" height="30" as="geometry"/>
                </mxCell>
                <mxCell id="25" value="amountInStock" style="text;html=1;align=center;verticalAlign=middle;resizable=0;points=[];autosize=1;strokeColor=none;fillColor=none;" parent="Oh2e18s1E1wJBl-dXE2C-85" vertex="1">
                    <mxGeometry x="12" y="185" width="100" height="30" as="geometry"/>
                </mxCell>
                <mxCell id="44" style="edgeStyle=none;html=1;exitX=1;exitY=0;exitDx=0;exitDy=0;entryX=0;entryY=1;entryDx=0;entryDy=0;startArrow=blockThin;startFill=1;" parent="1" source="12" target="17" edge="1">
                    <mxGeometry relative="1" as="geometry"/>
                </mxCell>
                <mxCell id="Ic-dWBEQ9aY9gVjvzGtF-73" value="&lt;h1&gt;NOTE:&lt;/h1&gt;&lt;div&gt;Part payment would be made up front, on delivery full payment would be made.&lt;/div&gt;&lt;div&gt;&lt;br&gt;&lt;/div&gt;&lt;div&gt;20% mimimum payment upfront&lt;/div&gt;" style="text;html=1;strokeColor=none;fillColor=none;spacing=5;spacingTop=-20;whiteSpace=wrap;overflow=hidden;rounded=0;" parent="1" vertex="1">
                    <mxGeometry x="1120" y="570" width="190" height="120" as="geometry"/>
                </mxCell>
                <mxCell id="Ic-dWBEQ9aY9gVjvzGtF-76" value="" style="group" parent="1" vertex="1" connectable="0">
                    <mxGeometry x="568.5" y="460" width="257" height="320" as="geometry"/>
                </mxCell>
                <mxCell id="Oh2e18s1E1wJBl-dXE2C-83" value="" style="group" parent="Ic-dWBEQ9aY9gVjvzGtF-76" vertex="1" connectable="0">
                    <mxGeometry width="250" height="320.00000000000006" as="geometry"/>
                </mxCell>
                <mxCell id="54" value="Transaction" style="swimlane;whiteSpace=wrap;html=1;" parent="Oh2e18s1E1wJBl-dXE2C-83" vertex="1">
                    <mxGeometry width="250" height="320.00000000000006" as="geometry"/>
                </mxCell>
                <mxCell id="63" value="id" style="text;html=1;align=center;verticalAlign=middle;resizable=0;points=[];autosize=1;strokeColor=none;fillColor=none;" parent="Oh2e18s1E1wJBl-dXE2C-83" vertex="1">
                    <mxGeometry x="9" y="29.629629629629633" width="30" height="30" as="geometry"/>
                </mxCell>
                <mxCell id="64" value="reference" style="text;html=1;align=center;verticalAlign=middle;resizable=0;points=[];autosize=1;strokeColor=none;fillColor=none;" parent="Oh2e18s1E1wJBl-dXE2C-83" vertex="1">
                    <mxGeometry x="8" y="65.18518518518519" width="70" height="30" as="geometry"/>
                </mxCell>
                <mxCell id="65" value="cusomer_id" style="text;html=1;align=center;verticalAlign=middle;resizable=0;points=[];autosize=1;strokeColor=none;fillColor=none;" parent="Oh2e18s1E1wJBl-dXE2C-83" vertex="1">
                    <mxGeometry x="3" y="97.1851851851852" width="90" height="30" as="geometry"/>
                </mxCell>
                <mxCell id="66" value="status" style="text;html=1;align=center;verticalAlign=middle;resizable=0;points=[];autosize=1;strokeColor=none;fillColor=none;" parent="Oh2e18s1E1wJBl-dXE2C-83" vertex="1">
                    <mxGeometry x="5" y="136.2962962962963" width="60" height="30" as="geometry"/>
                </mxCell>
                <mxCell id="67" value="" style="edgeStyle=none;orthogonalLoop=1;jettySize=auto;html=1;" parent="Oh2e18s1E1wJBl-dXE2C-83" edge="1">
                    <mxGeometry width="100" relative="1" as="geometry">
                        <mxPoint x="59" y="154.0740740740741" as="sourcePoint"/>
                        <mxPoint x="84" y="154.0740740740741" as="targetPoint"/>
                        <Array as="points"/>
                    </mxGeometry>
                </mxCell>
                <mxCell id="68" value="(pending,successful,failed)" style="text;html=1;align=center;verticalAlign=middle;resizable=0;points=[];autosize=1;strokeColor=none;fillColor=none;" parent="Oh2e18s1E1wJBl-dXE2C-83" vertex="1">
                    <mxGeometry x="70" y="136.2962962962963" width="170" height="30" as="geometry"/>
                </mxCell>
                <mxCell id="69" value="order_id" style="text;html=1;align=center;verticalAlign=middle;resizable=0;points=[];autosize=1;strokeColor=none;fillColor=none;" parent="Oh2e18s1E1wJBl-dXE2C-83" vertex="1">
                    <mxGeometry x="8" y="171.85185185185188" width="70" height="30" as="geometry"/>
                </mxCell>
                <mxCell id="pufAP5EOaPbRUr3e95Tp-82" value="createdAt" style="text;html=1;align=center;verticalAlign=middle;resizable=0;points=[];autosize=1;strokeColor=none;fillColor=none;" parent="Oh2e18s1E1wJBl-dXE2C-83" vertex="1">
                    <mxGeometry x="8" y="207.40740740740745" width="70" height="30" as="geometry"/>
                </mxCell>
                <mxCell id="pufAP5EOaPbRUr3e95Tp-83" value="updatedAt" style="text;html=1;align=center;verticalAlign=middle;resizable=0;points=[];autosize=1;strokeColor=none;fillColor=none;" parent="Oh2e18s1E1wJBl-dXE2C-83" vertex="1">
                    <mxGeometry x="8" y="240.59259259259264" width="80" height="30" as="geometry"/>
                </mxCell>
                <mxCell id="Ic-dWBEQ9aY9gVjvzGtF-91" value="description" style="text;html=1;align=center;verticalAlign=middle;resizable=0;points=[];autosize=1;strokeColor=none;fillColor=none;" parent="Oh2e18s1E1wJBl-dXE2C-83" vertex="1">
                    <mxGeometry x="9" y="116.36363636363637" width="80" height="30" as="geometry"/>
                </mxCell>
                <mxCell id="Ic-dWBEQ9aY9gVjvzGtF-69" value="mode_of_payment" style="text;html=1;align=center;verticalAlign=middle;resizable=0;points=[];autosize=1;strokeColor=none;fillColor=none;" parent="Ic-dWBEQ9aY9gVjvzGtF-76" vertex="1">
                    <mxGeometry x="3" y="273.7777777777778" width="120" height="30" as="geometry"/>
                </mxCell>
                <mxCell id="Ic-dWBEQ9aY9gVjvzGtF-71" value="" style="edgeStyle=none;orthogonalLoop=1;jettySize=auto;html=1;startArrow=blockThin;startFill=1;" parent="Ic-dWBEQ9aY9gVjvzGtF-76" edge="1">
                    <mxGeometry width="100" relative="1" as="geometry">
                        <mxPoint x="74" y="291.55555555555566" as="sourcePoint"/>
                        <mxPoint x="134" y="291.55555555555566" as="targetPoint"/>
                        <Array as="points"/>
                    </mxGeometry>
                </mxCell>
                <mxCell id="Ic-dWBEQ9aY9gVjvzGtF-72" value="&amp;nbsp;(Card, bank transfer)" style="text;html=1;align=center;verticalAlign=middle;resizable=0;points=[];autosize=1;strokeColor=none;fillColor=none;" parent="Ic-dWBEQ9aY9gVjvzGtF-76" vertex="1">
                    <mxGeometry x="117" y="273.7777777777778" width="140" height="30" as="geometry"/>
                </mxCell>
                <mxCell id="pufAP5EOaPbRUr3e95Tp-71" style="edgeStyle=none;html=1;exitX=1;exitY=0.75;exitDx=0;exitDy=0;entryX=0;entryY=0.25;entryDx=0;entryDy=0;startArrow=blockThin;startFill=1;" parent="1" source="6" target="54" edge="1">
                    <mxGeometry relative="1" as="geometry"/>
                </mxCell>
                <mxCell id="Ic-dWBEQ9aY9gVjvzGtF-88" style="edgeStyle=none;html=1;exitX=0.5;exitY=0;exitDx=0;exitDy=0;startArrow=none;startFill=0;" parent="1" source="Ic-dWBEQ9aY9gVjvzGtF-77" edge="1">
                    <mxGeometry relative="1" as="geometry">
                        <mxPoint x="746.4814814814813" y="270" as="targetPoint"/>
                    </mxGeometry>
                </mxCell>
                <mxCell id="Ic-dWBEQ9aY9gVjvzGtF-77" value="Product Media" style="swimlane;whiteSpace=wrap;html=1;" parent="1" vertex="1">
                    <mxGeometry x="653" y="289.75" width="187" height="150.25" as="geometry"/>
                </mxCell>
                <mxCell id="Ic-dWBEQ9aY9gVjvzGtF-78" value="id" style="text;html=1;align=center;verticalAlign=middle;resizable=0;points=[];autosize=1;strokeColor=none;fillColor=none;" parent="1" vertex="1">
                    <mxGeometry x="665" y="316" width="30" height="30" as="geometry"/>
                </mxCell>
                <mxCell id="Ic-dWBEQ9aY9gVjvzGtF-79" value="product_id" style="text;html=1;align=center;verticalAlign=middle;resizable=0;points=[];autosize=1;strokeColor=none;fillColor=none;" parent="1" vertex="1">
                    <mxGeometry x="661" y="335" width="80" height="30" as="geometry"/>
                </mxCell>
                <mxCell id="Ic-dWBEQ9aY9gVjvzGtF-84" value="media_url" style="text;html=1;align=center;verticalAlign=middle;resizable=0;points=[];autosize=1;strokeColor=none;fillColor=none;" parent="1" vertex="1">
                    <mxGeometry x="657" y="368" width="80" height="30" as="geometry"/>
                </mxCell>
                <mxCell id="Ic-dWBEQ9aY9gVjvzGtF-85" value="createdAt" style="text;html=1;align=center;verticalAlign=middle;resizable=0;points=[];autosize=1;strokeColor=none;fillColor=none;" parent="1" vertex="1">
                    <mxGeometry x="660" y="386" width="70" height="30" as="geometry"/>
                </mxCell>
                <mxCell id="Ic-dWBEQ9aY9gVjvzGtF-86" value="updatedAt" style="text;html=1;align=center;verticalAlign=middle;resizable=0;points=[];autosize=1;strokeColor=none;fillColor=none;" parent="1" vertex="1">
                    <mxGeometry x="657" y="410" width="80" height="30" as="geometry"/>
                </mxCell>
                <mxCell id="Ic-dWBEQ9aY9gVjvzGtF-87" value="" style="group" parent="1" vertex="1" connectable="0">
                    <mxGeometry x="662" y="351" width="183" height="26" as="geometry"/>
                </mxCell>
                <mxCell id="Ic-dWBEQ9aY9gVjvzGtF-80" value="mediaType" style="text;html=1;align=center;verticalAlign=middle;resizable=0;points=[];autosize=1;strokeColor=none;fillColor=none;" parent="Ic-dWBEQ9aY9gVjvzGtF-87" vertex="1">
                    <mxGeometry y="0.8387096774193549" width="80" height="30" as="geometry"/>
                </mxCell>
                <mxCell id="Ic-dWBEQ9aY9gVjvzGtF-82" value="" style="edgeStyle=none;orthogonalLoop=1;jettySize=auto;html=1;startArrow=none;startFill=0;" parent="Ic-dWBEQ9aY9gVjvzGtF-87" edge="1">
                    <mxGeometry width="100" relative="1" as="geometry">
                        <mxPoint x="73" y="13.419354838709678" as="sourcePoint"/>
                        <mxPoint x="93" y="13.419354838709678" as="targetPoint"/>
                        <Array as="points"/>
                    </mxGeometry>
                </mxCell>
                <mxCell id="Ic-dWBEQ9aY9gVjvzGtF-83" value="(image,video)" style="text;html=1;align=center;verticalAlign=middle;resizable=0;points=[];autosize=1;strokeColor=none;fillColor=none;" parent="Ic-dWBEQ9aY9gVjvzGtF-87" vertex="1">
                    <mxGeometry x="83" width="100" height="30" as="geometry"/>
                </mxCell>
                <mxCell id="Ic-dWBEQ9aY9gVjvzGtF-89" style="edgeStyle=none;html=1;exitX=0.25;exitY=0;exitDx=0;exitDy=0;startArrow=none;startFill=0;" parent="1" source="12" edge="1">
                    <mxGeometry relative="1" as="geometry">
                        <mxPoint x="130" y="300" as="targetPoint"/>
                    </mxGeometry>
                </mxCell>
                <mxCell id="Ic-dWBEQ9aY9gVjvzGtF-90" style="edgeStyle=none;html=1;exitX=0;exitY=1;exitDx=0;exitDy=0;entryX=0.711;entryY=-0.004;entryDx=0;entryDy=0;entryPerimeter=0;startArrow=none;startFill=0;" parent="1" source="xi6H6-T2mlmUW2kWonAm-74" target="12" edge="1">
                    <mxGeometry relative="1" as="geometry"/>
                </mxCell>
                <mxCell id="dKC9F4exPj_gppkmcFpz-69" value="product_category_id" style="text;html=1;align=center;verticalAlign=middle;resizable=0;points=[];autosize=1;strokeColor=none;fillColor=none;" parent="1" vertex="1">
                    <mxGeometry x="637" y="235" width="130" height="30" as="geometry"/>
                </mxCell>
                <mxCell id="dKC9F4exPj_gppkmcFpz-70" value="Product category" style="swimlane;whiteSpace=wrap;html=1;strokeColor=default;strokeWidth=1;" parent="1" vertex="1">
                    <mxGeometry x="906" y="35" width="184" height="200" as="geometry"/>
                </mxCell>
                <mxCell id="dKC9F4exPj_gppkmcFpz-71" value="id" style="text;html=1;align=center;verticalAlign=middle;resizable=0;points=[];autosize=1;strokeColor=none;fillColor=none;" parent="1" vertex="1">
                    <mxGeometry x="905" y="65" width="30" height="30" as="geometry"/>
                </mxCell>
                <mxCell id="dKC9F4exPj_gppkmcFpz-72" value="name" style="text;html=1;align=center;verticalAlign=middle;resizable=0;points=[];autosize=1;strokeColor=none;fillColor=none;" parent="1" vertex="1">
                    <mxGeometry x="905" y="91" width="50" height="30" as="geometry"/>
                </mxCell>
                <mxCell id="dKC9F4exPj_gppkmcFpz-73" value="createdAt" style="text;html=1;align=center;verticalAlign=middle;resizable=0;points=[];autosize=1;strokeColor=none;fillColor=none;" parent="1" vertex="1">
                    <mxGeometry x="905" y="118" width="70" height="30" as="geometry"/>
                </mxCell>
                <mxCell id="dKC9F4exPj_gppkmcFpz-74" value="updatedAt" style="text;html=1;align=center;verticalAlign=middle;resizable=0;points=[];autosize=1;strokeColor=none;fillColor=none;" parent="1" vertex="1">
                    <mxGeometry x="900" y="151" width="80" height="30" as="geometry"/>
                </mxCell>
                <mxCell id="tVYydsXoZpJ5Ec2lKQC4-69" value="Brand" style="swimlane;whiteSpace=wrap;html=1;strokeColor=default;strokeWidth=1;" parent="1" vertex="1">
                    <mxGeometry x="925" y="280" width="184" height="140" as="geometry">
                        <mxRectangle x="925" y="280" width="80" height="30" as="alternateBounds"/>
                    </mxGeometry>
                </mxCell>
                <mxCell id="tVYydsXoZpJ5Ec2lKQC4-70" value="&lt;font style=&quot;font-size: 12px;&quot;&gt;id&lt;/font&gt;" style="text;html=1;align=center;verticalAlign=middle;resizable=0;points=[];autosize=1;strokeColor=none;fillColor=none;fontSize=24;" parent="1" vertex="1">
                    <mxGeometry x="935" y="300" width="30" height="40" as="geometry"/>
                </mxCell>
                <mxCell id="tVYydsXoZpJ5Ec2lKQC4-71" value="&lt;font style=&quot;font-size: 12px;&quot;&gt;name&lt;/font&gt;" style="text;html=1;align=center;verticalAlign=middle;resizable=0;points=[];autosize=1;strokeColor=none;fillColor=none;fontSize=24;" parent="1" vertex="1">
                    <mxGeometry x="925" y="330" width="50" height="40" as="geometry"/>
                </mxCell>
                <mxCell id="tVYydsXoZpJ5Ec2lKQC4-72" value="brand_id" style="text;html=1;align=center;verticalAlign=middle;resizable=0;points=[];autosize=1;strokeColor=none;fillColor=none;fontSize=12;" parent="1" vertex="1">
                    <mxGeometry x="735" y="85" width="70" height="30" as="geometry"/>
                </mxCell>
                <mxCell id="tVYydsXoZpJ5Ec2lKQC4-74" style="edgeStyle=orthogonalEdgeStyle;html=1;exitX=1;exitY=0.25;exitDx=0;exitDy=0;entryX=-0.016;entryY=0.572;entryDx=0;entryDy=0;entryPerimeter=0;fontSize=12;" parent="1" source="17" target="tVYydsXoZpJ5Ec2lKQC4-71" edge="1">
                    <mxGeometry relative="1" as="geometry"/>
                </mxCell>
            </root>
        </mxGraphModel>
    </diagram>
</mxfile>